<?xml version="1.0" encoding="utf-8"?>
<!-- Generator: Adobe Illustrator 19.0.0, SVG Export Plug-In . SVG Version: 6.00 Build 0)  -->
<svg version="1.1" id="Слой_1" xmlns="http://www.w3.org/2000/svg" xmlns:xlink="http://www.w3.org/1999/xlink" x="0px" y="0px"
	 viewBox="-67 69 17 16" style="enable-background:new -67 69 17 16;" xml:space="preserve">
<style type="text/css">
	.st0{fill:#656565;}
</style>
<title>1060</title>
<g>
	<g transform="translate(3.000000, 0.000000)">
		<path class="st0" d="M-61.5,69c-3,0-5.5,2.3-5.5,5.1c0,0.7,0.2,1.4,0.5,2.1l5,8.7l5-8.7c0.3-0.6,0.5-1.3,0.5-2.1
			C-56.1,71.3-58.5,69-61.5,69L-61.5,69z M-61.5,78c-2,0-3.5-1.6-3.5-3.6c0-2,1.6-3.6,3.5-3.6c2,0,3.5,1.6,3.5,3.6
			C-58,76.4-59.6,78-61.5,78L-61.5,78z"/>
		<path class="st0" d="M-59,74.5c0,1.4-1.1,2.5-2.5,2.5c-1.4,0-2.5-1.1-2.5-2.5c0-1.4,1.1-2.5,2.5-2.5C-60.1,72-59,73.1-59,74.5
			L-59,74.5z"/>
	</g>
</g>
</svg>
