<?xml version="1.0" encoding="utf-8"?>
<!-- Generator: Adobe Illustrator 19.0.0, SVG Export Plug-In . SVG Version: 6.00 Build 0)  -->
<svg version="1.1" id="Слой_1" xmlns="http://www.w3.org/2000/svg" xmlns:xlink="http://www.w3.org/1999/xlink" x="0px" y="0px"
	 viewBox="-67 69 17 16" style="enable-background:new -67 69 17 16;" xml:space="preserve">
<style type="text/css">
	.st0{fill:#656565;}
</style>
<title>1001</title>
<g>
	<path class="st0" d="M-50.7,72.1h-14.6c-0.4,0-0.6,0.3-0.6,0.6v8.6c0,0.4,0.3,0.6,0.6,0.6h14.6c0.4,0,0.6-0.3,0.6-0.6v-8.6
		C-50,72.3-50.3,72.1-50.7,72.1L-50.7,72.1z M-52.1,81l-2.9-3.4l-3,2.5l-3.1-2.6l-2.9,3.5h-1.2l3.2-4.4l-3.1-2.6l0-1.3l7.1,5.5
		l7-5.6v1.4l-3,2.6l3.1,4.3L-52.1,81L-52.1,81z"/>
</g>
</svg>
