<?xml version="1.0" encoding="utf-8"?>
<!-- Generator: Adobe Illustrator 19.0.0, SVG Export Plug-In . SVG Version: 6.00 Build 0)  -->
<svg version="1.1" id="Слой_1" xmlns="http://www.w3.org/2000/svg" xmlns:xlink="http://www.w3.org/1999/xlink" x="0px" y="0px"
	 viewBox="-67 69 16 16" style="enable-background:new -67 69 16 16;" xml:space="preserve">
<style type="text/css">
	.st0{fill:#656565;}
</style>
<title>176</title>
<g>
	<g>
		<g>
			<path class="st0" d="M-53.1,77.9c0-2.2-3.2-2.9-3.2-2.9c-0.3,0-0.7,0-1.8,0v-1l1,0v-1.9h-1v1h-3v-1h-1V74l1,0v1h-1.9
				c0,0-3.2,0.6-3.2,2.9c0,2.2-0.9,5.8-0.9,5.8s0.7,0,0.7,1.3h13.3c0-1.2,0.9-1.3,0.9-1.3S-53.1,80.1-53.1,77.9L-53.1,77.9z
				 M-59.5,84.1c-2,0-3.6-1.6-3.6-3.6c0-2,1.6-3.6,3.6-3.6s3.6,1.6,3.6,3.6C-55.9,82.5-57.5,84.1-59.5,84.1L-59.5,84.1z"/>
			<path class="st0" d="M-65.7,73.9h1.3c0,0,1.3,0.2,1.3-0.8H-67C-67,74-65.7,73.9-65.7,73.9L-65.7,73.9z"/>
			<path class="st0" d="M-63,71.3c0-0.3,0.8-0.3,1.2-0.3h4.7c0.3,0,1.1,0,1.1,0.4c0,0.1,0,0.5,0,0.5h3.9c0,0,0,0,0,0
				c0-2.9-5.8-2.8-7.8-2.8c-2,0-7.1-0.1-7.1,2.9h4C-63,71.9-63,71.1-63,71.3L-63,71.3z"/>
			<path class="st0" d="M-54.6,73.9h1.3c0,0,1.2,0.2,1.2-0.8h-3.8C-55.8,73.9-54.6,73.9-54.6,73.9L-54.6,73.9z"/>
		</g>
		<rect x="-59" y="80" class="st0" width="2" height="1"/>
		<ellipse class="st0" cx="-59.5" cy="80.5" rx="1.5" ry="1.5"/>
	</g>
</g>
</svg>
