<?xml version="1.0" encoding="utf-8"?>
<!-- Generator: Adobe Illustrator 19.0.0, SVG Export Plug-In . SVG Version: 6.00 Build 0)  -->
<svg version="1.1" id="Layer_1" xmlns="http://www.w3.org/2000/svg" xmlns:xlink="http://www.w3.org/1999/xlink" x="0px" y="0px"
	 viewBox="180 -180 512 512" style="enable-background:new 180 -180 512 512;" xml:space="preserve">
<style type="text/css">
	.st0{fill:#B02033;}
</style>
<path class="st0" d="M692-82c-8.6,4.7-34.5,14.3-58.6,16.6c15.5-8.3,38.4-35.7,44-57.4c-14.9,9.5-49,23.3-65.9,23.3c0,0,0,0,0,0.1
	c-19.3-20.1-46.3-32.7-76.4-32.7c-58.3,0-105.6,47.3-105.6,105.6c0,8.1,1,16,2.7,23.5h0c-79.1-2-171.6-41.7-223.7-109.6
	c-32,55.4-4.3,117.1,32,139.5c-12.4,1-35.3-1.4-46.1-11.9c-0.7,36.8,17,85.5,81.5,103.2c-12.4,6.7-34.4,4.8-44,3.3
	c3.4,31.1,46.9,71.7,94.4,71.7c-16.9,19.6-74.7,55.2-146.3,43.8c48.6,29.6,105.3,46.7,165.2,46.7C515.6,284,648,145.9,640.8-24.5
	c0-0.2-0.1-0.4-0.1-0.6c0-0.5,0.1-0.9,0.1-1.3c0-0.5-0.1-1-0.1-1.6C656.3-38.5,677.1-57.3,692-82z"/>
</svg>
