<?xml version="1.0" encoding="utf-8"?>
<!-- Generator: Adobe Illustrator 19.0.0, SVG Export Plug-In . SVG Version: 6.00 Build 0)  -->
<svg version="1.1" id="Layer_1" xmlns="http://www.w3.org/2000/svg" xmlns:xlink="http://www.w3.org/1999/xlink" x="0px" y="0px"
	 viewBox="180 -180 512 512" style="enable-background:new 180 -180 512 512;" xml:space="preserve">
<style type="text/css">
	.st0{fill:#B02033;}
</style>
<g>
	<g>
		<path class="st0" d="M480.1-164.1c17.4-9.8,25.1-16.1,25.1-16.1H338.6c-33.4,0-126.1,37.9-126.1,126.4
			c0,88.5,96.1,107.5,131,106.1c-19.6,23.9-2.8,45.7,7.7,56.8c10.4,11.3,8.3,14.8-4.2,14.8c-12.6,0-167.3,1.7-167.3,112.4
			c0,110.7,205.6,118.7,273.1,59.1c67.6-59.7,52.9-142,0.7-179.2c-52.2-37.2-71.7-54.8-38.3-84.3c33.4-29.5,59.9-53.4,59.9-108.2
			c0-54.8-45.3-82.8-45.3-82.8S462.7-154.3,480.1-164.1z M454.3,230.7c0,47.8-40.6,70.9-109.4,70.9c-68.9,0-105.9-34.4-105.9-85.7
			c0-51.3,50.2-76.6,144.3-76.6C408.8,159,454.3,182.8,454.3,230.7z M354.7,30.4c-82.9,0-120.6-193.8-23-193.8
			C407.6-166.2,464.8,30.4,354.7,30.4z M629.5-115.9v-63h-32.6v63h-63.8v32.7h63.8v63.1h32.6v-63.1h62.7v-32.7H629.5z"/>
	</g>
</g>
</svg>
